PathFileType	4	(X/Y/Z)	P:\Projects\LMB_grand_challenge_database\project_only\opensim\experimental_data\SixthCompetition/DM_ngait_og1_new.trc
DataRate	CameraRate	NumFrames	NumMarkers	Units	OrigDataRate	OrigDataStartFrame	OrigNumFrames
120	120	4	68	mm	120	47	381
Frame#	Time	Sternum			Neck			R_Shoulder			L_Shoulder			Xiphoid			Thoracic			R_Asis			L_Asis			R_Psis			L_Psis			Lumbar			R_Elbow			R_ElbowMedial			R_ShoulderAnterior			R_ShoulderPosterior			R_Wrist			R_Radius			R_Ulna			L_Elbow			L_ElbowMedial			L_ShoulderAnterior			L_ShoulderPosterior			L_Wrist			L_Ulna			L_Radius			L_Thigh_Superior			L_Thigh_Inferior			L_Thigh_Lateral			L_Knee_Lateral			L_Knee_Medial			L_Patella			L_Shank_Superior			L_Shank_Inferior			L_Shank_Lateral			L_Ankle_Lateral			L_Ankle_Medial			R_Thigh_Superior			R_Thigh_Inferior			R_Thigh_Lateral			R_Knee_Lateral			R_Knee_Medial			R_Patella			R_Shank_Superior			R_Shank_Inferior			R_Shank_Lateral			R_Ankle_Lateral			RankleMedial			R_Heel			R_Toe			R_Midfoot_Medial			R_Midfoot_Lateral			R_Hindfoot			R_Midfoot_Superior			R_ToeMedial			R_ToeLateral			L_Heel			L_Toe			L_Midfoot_Medial			L_Midfoot_Lateral			L_Hindfoot			L_Midfoot_Superior			L_ToeMedial			L_ToeLateral			Oglobal			Sacral			Xglobal			Yglobal			Zglobal			
		X1	Y1	Z1	X2	Y2	Z2	X3	Y3	Z3	X4	Y4	Z4	X5	Y5	Z5	X6	Y6	Z6	X7	Y7	Z7	X8	Y8	Z8	X9	Y9	Z9	X10	Y10	Z10	X11	Y11	Z11	X12	Y12	Z12	X13	Y13	Z13	X14	Y14	Z14	X15	Y15	Z15	X16	Y16	Z16	X17	Y17	Z17	X18	Y18	Z18	X19	Y19	Z19	X20	Y20	Z20	X21	Y21	Z21	X22	Y22	Z22	X23	Y23	Z23	X24	Y24	Z24	X25	Y25	Z25	X26	Y26	Z26	X27	Y27	Z27	X28	Y28	Z28	X29	Y29	Z29	X30	Y30	Z30	X31	Y31	Z31	X32	Y32	Z32	X33	Y33	Z33	X34	Y34	Z34	X35	Y35	Z35	X36	Y36	Z36	X37	Y37	Z37	X38	Y38	Z38	X39	Y39	Z39	X40	Y40	Z40	X41	Y41	Z41	X42	Y42	Z42	X43	Y43	Z43	X44	Y44	Z44	X45	Y45	Z45	X46	Y46	Z46	X47	Y47	Z47	X48	Y48	Z48	X49	Y49	Z49	X50	Y50	Z50	X51	Y51	Z51	X52	Y52	Z52	X53	Y53	Z53	X54	Y54	Z54	X55	Y55	Z55	X56	Y56	Z56	X57	Y57	Z57	X58	Y58	Z58	X59	Y59	Z59	X60	Y60	Z60	X61	Y61	Z61	X62	Y62	Z62	X63	Y63	Z63	X64	Y64	Z64	X65	Y65	Z65	X66	Y66	Z66	X67	Y67	Z67	X68	Y68	Z68	

48	1.141667	-1089.76	1370.93	153.25	-1254.83	1449.3	141.035	-1170.87	1404.63	320.949	-1162.73	1408.56	-25.0716	-1073.93	1203.01	161.378	-1342.94	1263.74	134.182	-1174.83	971.294	289.869	-1131.53	979.016	18.1265	-1358.34	1014.02	153.858	-1348.2	1012.18	76.05880000000001	-1352.08	1062.61	118.853	-1250.82	1097.77	419.931	-0	0	0	-0	0	0	-0	0	0	-1184.62	825.641	423.629	-1172.38	834.154	382.015	-1233.91	829.578	424.768	-1085.39	1087.04	-124.163	-0	0	0	-0	0	0	-0	0	0	-918.276	877.833	-79.7478	-959.835	872.474	-105.062	-939.251	893.763	-37.3332	-1221.54	803.183	-20.4688	-1245.01	582.532	30.2965	-1182.32	662.99	56.262	-0	0	0	-0	0	0	-1243.53	486.93	93.2153	-1318.95	437.59	20.0218	-1419.18	184.196	17.1582	-1342.34	292.986	90.2915	-0	0	0	-0	0	0	-1240.56	788.958	314.941	-1148.6	591.216	289.721	-1128.5	730.424	307.14	-0	0	0	-0	0	0	-1034.04	531.352	236.956	-1116.19	392.793	305.673	-1031.92	199.587	301.503	-1009.53	340.805	236.691	-0	0	0	-0	0	0	-1052.07	54.4287	241.406	-767.228	132.076	281.441	-827.121	94.24930000000001	216.368	-848.706	78.7955	330.594	-952.562	44.9143	304.794	-915.384	155.47	267.699	-790.728	113.535	233.359	-806.304	103.383	323.968	-1522.86	68.9046	69.9528	-1222.81	49.625	48.4303	-1258.2	31.77	92.91549999999999	-1263.3	34.8425	-0.705866	-0	0	0	-1354.78	118.447	59.1038	-1258.2	31.77	92.91549999999999	-1263.3	34.8425	-0.705866	-0	0	0	-1353.27	1013.1	114.959	-200	0	0	-0	0	200	-0	200	0	
49	1.15	-1081.92	1369.39	154.6	-1246.96	1447.92	142.675	-1162.66	1402.75	322.227	-1155.11	1407.52	-23.6212	-1065.94	1201.65	162.299	-1335.16	1262.33	135.42	-1168.7	969.2910000000001	290.056	-1123.85	976.965	19.3044	-1351.33	1012.48	153.036	-1340.48	1010.91	76.9791	-1344.67	1061.25	118.374	-1242.16	1095.77	420.867	-0	0	0	-0	0	0	-0	0	0	-1176.04	823.854	424.168	-1163.81	832.117	382.484	-1225.4	827.795	425.396	-1074.62	1086.53	-121.998	-0	0	0	-0	0	0	-0	0	0	-905.516	879.183	-76.7517	-947.002	873.391	-102.143	-926.651	894.966	-34.6607	-1214.65	802.316	-19.8475	-1240.71	581.664	30.5593	-1177.24	661.837	56.4455	-0	0	0	-0	0	0	-1240.6	485.586	93.5651	-1316.1	437.173	20.3518	-1418.21	184.756	17.2613	-1340.73	292.99	90.8882	-0	0	0	-0	0	0	-1233.07	787.677	315.427	-1139.44	590.312	289.994	-1119.8	729.873	307.375	-0	0	0	-0	0	0	-1024.69	532.0069999999999	237.137	-1105.59	392.032	306.443	-1018.93	199.851	302.111	-998.421	341.194	236.969	-0	0	0	-0	0	0	-1037.62	53.8802	243.424	-753.675	136.249	278.7	-813.607	96.7021	215.156	-833.529	82.0367	329.789	-937.269	46.5877	305.496	-902.212	157.047	267.005	-777.53	116.925	230.934	-791.8200000000001	107.25	321.937	-1522.72	69.68640000000001	70.069	-1222.72	49.4549	48.3672	-1258	31.611	93.0467	-1263.14	34.7255	-0.670774	-0	0	0	-1354.38	118.508	59.0558	-1258	31.611	93.0467	-1263.14	34.7255	-0.670774	-0	0	0	-1345.91	1011.7	115.008	-200	0	0	-0	0	200	-0	200	0	
50	1.158333	-1074.11	1367.93	155.944	-1239.03	1446.49	144.512	-1154.3	1400.77	323.666	-1147.27	1406.33	-21.96	-1058.09	1200.36	163.217	-1327.36	1261.05	136.724	-1161.42	967.795	290.309	-1116.18	975.468	20.033	-1343.82	1010.89	152.954	-1332.75	1009.39	77.95059999999999	-1337.15	1059.73	118.525	-1233.76	1093.88	422.076	-0	0	0	-0	0	0	-0	0	0	-1167.58	822.056	424.953	-1155.22	830.626	383.305	-1216.84	825.6180000000001	426.128	-1063.99	1085.69	-119.319	-0	0	0	-0	0	0	-0	0	0	-893.167	880.379	-73.8421	-934.456	874.1130000000001	-99.54940000000001	-914.425	896.079	-31.8133	-1207.26	800.061	-18.0578	-1236.25	580.869	30.9381	-1171.91	660.954	57.0552	-0	0	0	-0	0	0	-1237.5	484.316	94.03100000000001	-1313.03	437.036	20.6217	-1417.19	185.267	17.4076	-1338.69	292.737	90.89190000000001	-0	0	0	-0	0	0	-1225.25	786.503	316.243	-1129.97	589.558	290.642	-1110.37	729.259	307.328	-0	0	0	-0	0	0	-1016.1	531.712	236.683	-1095.02	391.29	307.167	-1007.19	199.726	302.383	-987.775	341.219	236.97	-0	0	0	-0	0	0	-1025.54	53.5673	244.627	-741.884	137.643	276.87	-801.963	97.2757	214.307	-820.908	83.2693	329.186	-924.725	47.1238	305.935	-890.42	157.556	266.464	-765.998	118.011	229.315	-779.301	108.574	320.526	-1522.27	70.49850000000001	69.9785	-1222.56	49.2122	48.2653	-1257.84	31.4181	92.9528	-1262.98	34.6148	-0.703446	-0	0	0	-1353.9	118.61	59.0644	-1257.84	31.4181	92.9528	-1262.98	34.6148	-0.703446	-0	0	0	-1338.28	1010.14	115.452	-200	0	0	-0	0	200	-0	200	0	
51	1.166667	-1066	1366.46	157.255	-1231.15	1445.02	146.318	-1146.13	1398.95	325.21	-1139.13	1405.03	-20.3157	-1049.97	1198.9	164.254	-1319.45	1259.68	138.069	-1152.92	966.814	291.658	-1108.28	974.639	20.6001	-1335.69	1009.26	154.575	-1324.87	1007.61	78.96729999999999	-1329.38	1058.03	119.969	-1224.98	1091.61	423.217	-0	0	0	-0	0	0	-0	0	0	-1158.66	820.073	425.515	-1146.68	828.386	384.087	-1208.02	823.745	426.877	-1053.96	1085.16	-116.844	-0	0	0	-0	0	0	-0	0	0	-881.138	881.461	-70.9162	-922.36	874.627	-96.752	-902.615	896.898	-29.0994	-1200.71	799.41	-17.6505	-1231.37	580.01	31.4098	-1166.59	659.63	57.6633	-0	0	0	-0	0	0	-1233.98	482.982	94.58969999999999	-1309.5	436.598	20.9872	-1415.87	185.791	17.5107	-1336.29	292.407	90.6962	-0	0	0	-0	0	0	-1216.35	785.3819999999999	316.925	-1120.14	589.018	291.213	-1100.29	728.6079999999999	307.159	-0	0	0	-0	0	0	-1006.81	531.487	236.098	-1084.75	390.747	307.786	-996.792	199.197	302.699	-978.224	340.588	236.478	-0	0	0	-0	0	0	-1015.77	53.4045	244.973	-731.7859999999999	136.523	275.871	-792.1420000000001	96.2325	213.768	-810.765	82.7355	328.761	-914.773	46.819	306.004	-880.303	156.956	265.962	-756.135	116.675	228.558	-768.96	107.687	319.844	-1522.08	71.6897	70.0859	-1222.39	48.9604	48.1933	-1257.66	31.24	92.9537	-1262.99	34.5374	-0.703113	-0	0	0	-1353.22	118.74	58.9907	-1257.66	31.24	92.9537	-1262.99	34.5374	-0.703113	-0	0	0	-1330.28	1008.43	116.771	-200	0	0	-0	0	200	-0	200	0	
